<?xml version="1.0" standalone="no"?>
<!DOCTYPE svg PUBLIC "-//W3C//DTD SVG 20010904//EN"
 "http://www.w3.org/TR/2001/REC-SVG-20010904/DTD/svg10.dtd">
<svg version="1.0" xmlns="http://www.w3.org/2000/svg"
 width="291.000000pt" height="108.000000pt" viewBox="0 0 291.000000 108.000000"
 preserveAspectRatio="xMidYMid meet">
<metadata>
Created by potrace 1.10, written by Peter Selinger 2001-2011
</metadata>
<g transform="translate(0.000000,108.000000) scale(0.100000,-0.100000)"
fill="#000000" stroke="none">
<path d="M537 932 l-27 -28 30 -29 c16 -15 27 -31 25 -35 -7 -11 20 -31 30
-22 5 4 5 2 1 -5 -6 -12 10 -28 29 -28 6 0 10 -4 10 -10 1 -20 38 -65 53 -65
9 0 27 14 41 31 l26 31 -90 94 c-49 52 -93 94 -96 94 -3 0 -17 -13 -32 -28z
m168 -171 c-7 -6 -75 60 -75 73 0 6 18 -7 40 -29 22 -21 37 -41 35 -44z"/>
<path d="M915 862 c-64 -28 -98 -48 -124 -76 -38 -41 -18 -41 47 -1 106 65
175 80 206 46 17 -18 17 -24 1 -100 -20 -97 -21 -182 -4 -225 33 -83 112 -149
221 -185 36 -12 72 -29 78 -36 25 -30 -26 -36 -247 -28 -206 8 -212 7 -221
-12 -9 -20 -6 -20 233 -20 225 0 244 1 264 19 45 41 20 72 -84 101 -120 34
-202 108 -225 203 -9 41 -8 64 9 149 27 128 26 148 -1 167 -29 21 -102 19
-153 -2z"/>
<path d="M689 669 c-22 -31 -80 -161 -75 -167 15 -14 73 81 113 185 10 25 -16
13 -38 -18z"/>
<path d="M2212 668 c2 -15 10 -23 23 -23 13 0 21 8 23 23 3 18 -1 22 -23 22
-22 0 -26 -4 -23 -22z"/>
<path d="M1674 661 c-57 -25 -82 -108 -50 -170 34 -66 149 -68 191 -4 15 22
15 23 -14 23 -15 0 -34 -7 -41 -15 -18 -21 -66 -19 -90 5 -11 11 -20 33 -20
50 0 58 77 104 109 66 15 -18 61 -27 61 -11 0 40 -97 77 -146 56z"/>
<path d="M1862 550 c4 -48 11 -77 23 -90 20 -22 74 -27 93 -8 9 9 12 9 12 0 0
-7 10 -12 23 -12 21 0 22 3 22 90 0 86 -1 90 -22 90 -20 0 -22 -5 -25 -67 l-3
-68 -35 0 -35 0 -3 68 c-3 65 -4 67 -29 67 -26 0 -26 0 -21 -70z"/>
<path d="M2080 530 c0 -89 0 -90 25 -90 23 0 24 4 27 63 3 56 5 62 26 65 16 3
22 10 22 28 0 24 -23 34 -35 14 -3 -5 -11 -10 -16 -10 -6 0 -7 5 -4 10 4 6 -5
10 -19 10 -26 0 -26 0 -26 -90z"/>
<path d="M2210 530 c0 -89 0 -90 25 -90 25 0 25 1 25 90 0 89 0 90 -25 90 -25
0 -25 -1 -25 -90z"/>
<path d="M2322 600 c-61 -57 -26 -160 54 -160 48 0 73 15 90 56 12 29 12 39 0
68 -8 19 -23 39 -34 45 -33 18 -86 13 -110 -9z m96 -32 c7 -7 12 -24 12 -38 0
-34 -17 -50 -52 -50 -21 0 -31 6 -38 25 -15 39 3 75 38 75 15 0 33 -5 40 -12z"/>
<path d="M610 478 c-132 -67 -132 -249 0 -316 54 -27 101 -28 157 -3 131 60
132 256 1 320 -57 27 -103 27 -158 -1z m149 -74 c36 -30 49 -81 30 -125 -14
-35 -62 -69 -97 -69 -56 0 -112 56 -112 112 0 32 35 87 63 98 42 17 84 11 116
-16z"/>
</g>
</svg>
